<svg width="172" height="30" viewBox="0 0 172 30" fill="none" xmlns="http://www.w3.org/2000/svg">
<path d="M14.048 29.432C18.44 29.432 22.076 27.848 24.452 24.932L20.708 21.476C19.016 23.456 16.892 24.464 14.372 24.464C9.656 24.464 6.308 21.152 6.308 16.4C6.308 11.648 9.656 8.336 14.372 8.336C16.892 8.336 19.016 9.344 20.708 11.288L24.452 7.832C22.076 4.952 18.44 3.368 14.084 3.368C6.236 3.368 0.404 8.804 0.404 16.4C0.404 23.996 6.236 29.432 14.048 29.432ZM47.4343 8.48V3.8H28.3903V29H34.2223V19.82H45.8863V15.14H34.2223V8.48H47.4343ZM63.3404 29.432C71.2604 29.432 77.1284 23.924 77.1284 16.4C77.1284 8.876 71.2604 3.368 63.3404 3.368C55.3844 3.368 49.5524 8.912 49.5524 16.4C49.5524 23.888 55.3844 29.432 63.3404 29.432ZM63.3404 24.464C58.8404 24.464 55.4564 21.188 55.4564 16.4C55.4564 11.612 58.8404 8.336 63.3404 8.336C67.8404 8.336 71.2244 11.612 71.2244 16.4C71.2244 21.188 67.8404 24.464 63.3404 24.464ZM92.8874 9.344C90.2594 9.344 87.9914 10.244 86.4794 11.9V9.632H81.1154V29H86.7314V19.424C86.7314 15.86 88.6754 14.204 91.3754 14.204C93.8594 14.204 95.2994 15.644 95.2994 18.776V29H100.915V17.912C100.915 12.008 97.4594 9.344 92.8874 9.344ZM106.006 29H111.622V2.288H106.006V29ZM119.642 6.932C121.73 6.932 123.134 5.564 123.134 3.692C123.134 1.964 121.73 0.667998 119.642 0.667998C117.554 0.667998 116.15 2.036 116.15 3.8C116.15 5.564 117.554 6.932 119.642 6.932ZM116.834 29H122.45V9.632H116.834V29ZM139.434 9.344C136.806 9.344 134.538 10.244 133.026 11.9V9.632H127.662V29H133.278V19.424C133.278 15.86 135.222 14.204 137.922 14.204C140.406 14.204 141.846 15.644 141.846 18.776V29H147.462V17.912C147.462 12.008 144.006 9.344 139.434 9.344ZM171.736 19.388C171.736 13.16 167.344 9.344 161.656 9.344C155.752 9.344 151.324 13.52 151.324 19.316C151.324 25.076 155.68 29.288 162.376 29.288C165.868 29.288 168.568 28.208 170.368 26.156L167.38 22.916C166.048 24.176 164.572 24.788 162.52 24.788C159.568 24.788 157.516 23.312 156.976 20.9H171.628C171.664 20.432 171.736 19.82 171.736 19.388ZM161.692 13.592C164.212 13.592 166.048 15.176 166.444 17.624H156.904C157.3 15.14 159.136 13.592 161.692 13.592Z" fill="#21404A"/>
</svg>
