<svg width="240" height="145" viewBox="0 0 240 145" fill="none" xmlns="http://www.w3.org/2000/svg">
<g clip-path="url(#clip0)">
<path d="M240 0H152.003L169.459 17.4322L106.259 80.4562L153.525 127.657L216.636 64.6332L240 87.8761V0Z" fill="#9BCC4C"/>
<path d="M148.512 122.562L146.005 120.059L216.635 49.4359L229.258 61.9513V10.7275H177.963L184.588 17.4322L113.868 87.9655L111.361 85.4624L179.575 17.4322L169.28 7.15167H232.838V70.6227L216.635 54.4421L148.512 122.562Z" fill="#5E9C4B"/>
<path d="M120.224 17.3428L167.49 64.5438L153.525 127.657L106.259 80.4562L120.224 17.3428Z" fill="#38632A"/>
<path d="M167.541 64.5656L120.257 17.3464L57.0847 80.4317L104.369 127.651L167.541 64.5656Z" fill="#5E9C4B"/>
<path d="M125.365 22.4195L62.1931 85.5048L64.7251 88.0333L127.897 24.9479L125.365 22.4195Z" fill="#9BCC4C"/>
<path d="M159.962 57.0407L96.7903 120.126L99.3222 122.655L162.494 59.5692L159.962 57.0407Z" fill="#9BCC4C"/>
<path d="M80.567 17.3428L127.833 64.5438L104.379 127.657L57.113 80.4562L80.567 17.3428Z" fill="#38632A"/>
<path d="M127.798 64.5648L80.5134 17.3456L-0.00259922 97.751L47.2816 144.97L127.798 64.5648Z" fill="#9BCC4C"/>
<path d="M47.266 134.898L10.1157 97.799L85.5801 22.4384L88.0866 25.0308L15.2183 97.799L47.266 129.803L120.134 57.0345L122.73 59.5376L47.266 134.898Z" fill="#5E9C4B"/>
<path d="M12.6221 97.799L22.0215 88.5018C24.4386 91.0049 25.8709 94.3126 25.8709 97.799C25.8709 101.375 24.4386 104.772 21.932 107.186L12.6221 97.799Z" fill="#5E9C4B"/>
<path d="M47.2659 132.395L37.8665 123.187C40.373 120.684 43.7747 119.254 47.2659 119.254C50.8467 119.254 54.1589 120.684 56.6654 123.187L47.2659 132.395Z" fill="#5E9C4B"/>
<path d="M72.5999 89.4852C81.9935 89.4852 89.6085 81.8807 89.6085 72.5C89.6085 63.1193 81.9935 55.5148 72.5999 55.5148C63.2063 55.5148 55.5913 63.1193 55.5913 72.5C55.5913 81.8807 63.2063 89.4852 72.5999 89.4852Z" fill="#5E9C4B"/>
</g>
<defs>
<clipPath id="clip0">
<rect width="240" height="145" fill="white"/>
</clipPath>
</defs>
</svg>
