<svg width="115" height="20" viewBox="0 0 115 20" fill="none" xmlns="http://www.w3.org/2000/svg">
<path d="M9.57106 19.288C12.4991 19.288 14.9231 18.232 16.5071 16.288L14.0111 13.984C12.8831 15.304 11.4671 15.976 9.78706 15.976C6.64306 15.976 4.41106 13.768 4.41106 10.6C4.41106 7.432 6.64306 5.224 9.78706 5.224C11.4671 5.224 12.8831 5.896 14.0111 7.192L16.5071 4.888C14.9231 2.968 12.4991 1.912 9.59506 1.912C4.36306 1.912 0.475063 5.536 0.475063 10.6C0.475063 15.664 4.36306 19.288 9.57106 19.288ZM31.8286 5.32V2.2H19.1326V19H23.0206V12.88H30.7966V9.76H23.0206V5.32H31.8286ZM42.4327 19.288C47.7127 19.288 51.6247 15.616 51.6247 10.6C51.6247 5.584 47.7127 1.912 42.4327 1.912C37.1287 1.912 33.2407 5.608 33.2407 10.6C33.2407 15.592 37.1287 19.288 42.4327 19.288ZM42.4327 15.976C39.4327 15.976 37.1767 13.792 37.1767 10.6C37.1767 7.408 39.4327 5.224 42.4327 5.224C45.4327 5.224 47.6887 7.408 47.6887 10.6C47.6887 13.792 45.4327 15.976 42.4327 15.976ZM62.1307 5.896C60.3787 5.896 58.8667 6.496 57.8587 7.6V6.088H54.2827V19H58.0267V12.616C58.0267 10.24 59.3227 9.136 61.1227 9.136C62.7787 9.136 63.7387 10.096 63.7387 12.184V19H67.4827V11.608C67.4827 7.672 65.1787 5.896 62.1307 5.896ZM70.8764 19H74.6204V1.192H70.8764V19ZM79.9672 4.288C81.3592 4.288 82.2952 3.376 82.2952 2.128C82.2952 0.975999 81.3592 0.111999 79.9672 0.111999C78.5752 0.111999 77.6392 1.024 77.6392 2.2C77.6392 3.376 78.5752 4.288 79.9672 4.288ZM78.0952 19H81.8392V6.088H78.0952V19ZM93.1619 5.896C91.4099 5.896 89.8979 6.496 88.8899 7.6V6.088H85.3139V19H89.0579V12.616C89.0579 10.24 90.3539 9.136 92.1539 9.136C93.8099 9.136 94.7699 10.096 94.7699 12.184V19H98.5139V11.608C98.5139 7.672 96.2099 5.896 93.1619 5.896ZM114.696 12.592C114.696 8.44 111.768 5.896 107.976 5.896C104.04 5.896 101.088 8.68 101.088 12.544C101.088 16.384 103.992 19.192 108.456 19.192C110.784 19.192 112.584 18.472 113.784 17.104L111.792 14.944C110.904 15.784 109.92 16.192 108.552 16.192C106.584 16.192 105.216 15.208 104.856 13.6H114.624C114.648 13.288 114.696 12.88 114.696 12.592ZM108 8.728C109.68 8.728 110.904 9.784 111.168 11.416H104.808C105.072 9.76 106.296 8.728 108 8.728Z" fill="white"/>
</svg>
